<?xml version="1.0" encoding="UTF-8"?>
<!DOCTYPE svg PUBLIC "-//W3C//DTD SVG 1.1//EN" "http://www.w3.org/Graphics/SVG/1.1/DTD/svg11.dtd">
<!-- Creator: CorelDRAW 2021 (64-Bit) -->
<svg xmlns="http://www.w3.org/2000/svg" xml:space="preserve" width="91.44mm" height="47.55mm" version="1.1" style="shape-rendering:geometricPrecision; text-rendering:geometricPrecision; image-rendering:optimizeQuality; fill-rule:evenodd; clip-rule:evenodd"
viewBox="0 0 9144 4755"
 xmlns:xlink="http://www.w3.org/1999/xlink"
 xmlns:xodm="http://www.corel.com/coreldraw/odm/2003">
 <defs>
  <style type="text/css">
   <![CDATA[
    .fil0 {fill:none}
    .fil3 {fill:black}
    .fil1 {fill:#057D6D}
    .fil2 {fill:black;fill-rule:nonzero}
   ]]>
  </style>
 </defs>
 <g id="Capa_x0020_1">
  <metadata id="CorelCorpID_0Corel-Layer"/>
  <rect class="fil0" width="9144" height="4755"/>
  <g id="_2554570836848">
   <path class="fil1" d="M1513.74 802.15c478.09,0 881.18,321 1005.58,759.22 -27,91.67 -128.69,93.52 -198.06,75.12 -93.44,-358.71 -419.55,-623.52 -807.52,-623.52 -460.86,0 -834.45,373.59 -834.45,834.44 0,460.84 373.59,834.45 834.45,834.45 387.97,0 714.08,-264.81 807.52,-623.53 64.05,-13.15 171.06,-16.59 198.06,75.11 -124.41,438.22 -527.49,759.24 -1005.58,759.24 -577.29,0 -1045.27,-467.98 -1045.27,-1045.27 0,-577.28 467.98,-1045.26 1045.27,-1045.26z"/>
   <path class="fil1" d="M1513.74 1144.57c296.86,0 550.7,184.07 653.71,444.29 -43.1,66.02 -147.44,72.18 -212.47,47.63 -78.75,-164.44 -246.73,-278.04 -441.24,-278.04 -270.04,0 -488.97,218.92 -488.97,488.96 0,270.04 218.93,488.96 488.97,488.96 194.51,0 362.49,-113.59 441.24,-278.04 56.28,-20.16 169.38,-18.42 212.47,47.62 -103,260.22 -356.84,444.31 -653.71,444.31 -388.18,0 -702.85,-314.67 -702.85,-702.85 0,-388.17 314.67,-702.84 702.85,-702.84z"/>
   <path class="fil2" d="M3715.82 1726.41c-103.93,38.23 -155.29,48.98 -230.56,48.98 -91.98,0 -150.52,-64.51 -151.71,-173.22 0,-120.65 57.34,-179.19 162.46,-179.19 54.96,0 107.52,10.76 200.7,34.65l65.7 -168.44c-89.6,-44.2 -183.97,-65.7 -275.95,-65.7 -236.53,0 -378.69,136.19 -378.69,378.68 0,238.92 142.16,372.72 366.74,372.72 109.9,0 199.5,-23.9 312.99,-82.43l-71.68 -166.05zm195.91 -166.04c81.24,-16.73 143.35,-25.1 185.17,-25.1 58.53,0 72.87,25.1 72.87,75.27l-101.54 0c-163.66,0 -246.09,57.33 -246.09,180.38 0,142.16 69.29,183.97 189.94,183.97 63.32,0 113.49,-28.67 157.69,-78.85l0 68.1 213.83 0 0 -353.6c0,-168.44 -72.87,-238.92 -246.09,-238.92 -58.53,0 -117.07,7.16 -258.03,45.39l32.25 143.36zm258.04 151.71l0 72.86c-22.7,19.12 -50.17,34.65 -84.81,34.65 -37.04,0 -62.13,-21.5 -62.13,-56.15 0,-38.22 27.47,-51.36 75.26,-51.36l71.68 0zm519.65 -329.71l-216.22 0 0 581.77 216.22 0 0 -339.27c26.28,-29.86 53.75,-48.97 82.43,-48.97 34.64,0 51.37,23.89 51.37,80.03l0 308.21 216.22 0 0 -340.47c29.86,-33.44 56.14,-47.77 81.23,-47.77 34.65,0 50.17,23.89 50.17,80.03l0 308.21 216.23 0 0 -370.33c0,-157.69 -47.79,-221 -167.25,-221 -59.73,0 -113.48,22.7 -195.91,99.15 -22.7,-69.29 -71.68,-99.15 -152.91,-99.15 -64.51,0 -115.88,27.48 -181.58,88.4l0 -78.84zm845.77 178c81.24,-16.73 143.35,-25.1 185.17,-25.1 58.53,0 72.87,25.1 72.87,75.27l-101.54 0c-163.66,0 -246.09,57.33 -246.09,180.38 0,142.16 69.29,183.97 189.94,183.97 63.32,0 113.49,-28.67 157.69,-78.85l0 68.1 213.83 0 0 -353.6c0,-168.44 -72.87,-238.92 -246.09,-238.92 -58.53,0 -117.07,7.16 -258.03,45.39l32.25 143.36zm258.04 151.71l0 72.86c-22.7,19.12 -50.17,34.65 -84.82,34.65 -37.03,0 -62.12,-21.5 -62.12,-56.15 0,-38.22 27.47,-51.36 75.26,-51.36l71.68 0zm519.65 -329.71l-216.22 0 0 581.77 216.22 0 0 -269.98c22.7,-82.43 70.48,-100.35 140.96,-100.35 20.31,0 39.42,0 68.09,2.39l14.34 -219.8c-32.26,-3.59 -51.36,-3.59 -71.68,-3.59 -64.51,0 -108.71,37.04 -151.71,121.85l0 -112.29zm308.2 178c81.24,-16.73 143.35,-25.1 185.17,-25.1 58.53,0 72.87,25.1 72.87,75.27l-101.55 0c-163.65,0 -246.08,57.33 -246.08,180.38 0,142.16 69.29,183.97 189.94,183.97 63.32,0 113.49,-28.67 157.69,-78.85l0 68.1 213.83 0 0 -353.6c0,-168.44 -72.87,-238.92 -246.09,-238.92 -58.54,0 -117.07,7.16 -258.03,45.39l32.25 143.36zm258.04 151.71l0 72.86c-22.7,19.12 -50.17,34.65 -84.82,34.65 -37.03,0 -62.12,-21.5 -62.12,-56.15 0,-38.22 27.47,-51.36 75.26,-51.36l71.68 0zm1128.89 252.06l0 -768.13 -216.22 0 0 248.48c-57.34,-57.34 -111.1,-72.87 -178,-72.87 -132.6,0 -215.02,89.59 -215.02,295.06 0,217.42 106.32,308.21 226.97,308.21 87.2,0 120.65,-27.47 166.05,-76.45l0 65.7 216.22 0zm-216.22 -219.81c-23.9,34.64 -48.98,51.37 -94.38,51.37 -53.75,0 -86,-38.23 -86,-129.02 0,-80.03 28.66,-113.48 82.42,-113.48 39.42,0 69.29,19.11 97.96,56.15l0 134.98zm799.19 14.34c-74.07,34.64 -125.44,50.17 -204.28,50.17 -58.54,0 -88.4,-22.69 -99.15,-77.65l359.57 0c3.58,-33.44 4.78,-53.76 4.78,-80.04 0,-180.38 -106.32,-279.53 -274.76,-279.53 -187.55,0 -298.65,107.51 -298.65,305.81 0,194.72 114.69,297.46 298.65,297.46 99.15,0 181.58,-27.47 274.76,-93.18l-60.92 -123.04zm-304.62 -142.16c9.55,-65.7 41.8,-96.76 90.78,-96.76 54.95,0 84.82,33.45 87.21,96.76l-177.99 0z"/>
   <path class="fil2" d="M3789.03 2719.84c-116.45,42.83 -174,54.87 -258.32,54.87 -103.05,0 -168.64,-72.27 -169.98,-194.07 0,-135.18 64.25,-200.76 182.03,-200.76 61.56,0 120.46,12.05 224.85,38.82l73.61 -188.72c-100.38,-49.52 -206.11,-73.61 -309.16,-73.61 -265.01,0 -424.28,152.58 -424.28,424.27 0,267.68 159.27,417.59 410.89,417.59 123.13,0 223.51,-26.78 350.66,-92.36l-80.3 -186.03zm444.35 -397.51c-215.48,0 -342.64,123.13 -342.64,341.29 0,212.81 127.16,334.61 342.64,334.61 215.48,0 342.63,-121.8 342.63,-334.61 0,-218.16 -127.15,-341.29 -342.63,-341.29zm0 485.84c-66.93,0 -105.74,-36.14 -105.74,-144.55 0,-113.76 40.16,-151.23 105.74,-151.23 65.58,0 105.73,37.47 105.73,151.23 0,108.41 -40.15,144.55 -105.73,144.55zm661.17 -473.79l-242.25 0 0 651.8 242.25 0 0 -380.11c29.45,-33.46 60.23,-54.88 92.36,-54.88 38.8,0 57.54,26.78 57.54,89.68l0 345.31 242.26 0 0 -381.44c33.46,-37.48 62.9,-53.55 91,-53.55 38.82,0 56.22,26.78 56.22,89.68l0 345.31 242.25 0 0 -414.91c0,-176.66 -53.53,-247.6 -187.37,-247.6 -66.93,0 -127.16,25.42 -219.51,111.09 -25.43,-77.63 -80.3,-111.09 -171.31,-111.09 -72.28,0 -129.83,30.78 -203.44,99.04l0 -88.33zm1424.07 421.59c-82.98,38.82 -140.53,56.22 -228.87,56.22 -65.58,0 -99.04,-25.43 -111.09,-87l402.87 0c4.01,-37.48 5.35,-60.22 5.35,-89.67 0,-202.1 -119.12,-313.19 -307.84,-313.19 -210.13,0 -334.6,120.46 -334.6,342.64 0,218.16 128.49,333.26 334.6,333.26 111.09,0 203.44,-30.79 307.84,-104.4l-68.26 -137.86zm-341.29 -159.26c10.71,-73.62 46.84,-108.42 101.71,-108.42 61.57,0 95.04,37.48 97.71,108.42l-199.42 0zm732.1 -262.33l-242.25 0 0 651.8 242.25 0 0 -302.48c25.43,-92.35 78.97,-112.43 157.94,-112.43 22.74,0 44.16,0 76.29,2.68l16.06 -246.27c-36.14,-4.01 -57.56,-4.01 -80.31,-4.01 -72.27,0 -121.79,41.49 -169.98,136.52l0 -125.81zm811.07 424.27c-65.58,32.13 -133.84,49.52 -190.05,49.52 -70.93,0 -113.76,-54.88 -113.76,-144.55 0,-93.69 42.83,-151.23 115.1,-151.23 48.19,0 97.71,6.68 172.65,34.79l65.59 -153.92c-96.37,-54.87 -180.69,-70.93 -273.04,-70.93 -187.37,0 -318.54,119.12 -318.54,341.29 0,216.83 141.87,334.61 317.21,334.61 125.81,0 206.11,-29.45 297.12,-96.37l-72.28 -143.21zm127.16 -612.99c0,81.64 65.58,123.14 136.51,123.14 70.94,0 136.52,-41.5 136.52,-123.14 0,-82.98 -65.58,-124.47 -136.52,-124.47 -70.93,0 -136.51,41.49 -136.51,124.47zm258.3 840.52l0 -651.8 -242.24 0 0 651.8 242.24 0zm429.64 -663.85c-215.48,0 -342.64,123.13 -342.64,341.29 0,212.81 127.16,334.61 342.64,334.61 215.48,0 342.63,-121.8 342.63,-334.61 0,-218.16 -127.15,-341.29 -342.63,-341.29zm0 485.84c-66.93,0 -105.74,-36.14 -105.74,-144.55 0,-113.76 40.16,-151.23 105.74,-151.23 65.58,0 105.73,37.47 105.73,151.23 0,108.41 -40.15,144.55 -105.73,144.55z"/>
   <path class="fil2" d="M3642.13 3828.65l0 -679.74 -191.34 0 0 219.88c-50.74,-50.74 -98.31,-64.48 -157.51,-64.48 -117.34,0 -190.29,79.29 -190.29,261.11 0,192.4 94.09,272.75 200.86,272.75 77.17,0 106.77,-24.32 146.94,-67.67l0 58.15 191.34 0zm-191.34 -194.52c-21.14,30.66 -43.34,45.46 -83.51,45.46 -47.57,0 -76.12,-33.82 -76.12,-114.17 0,-70.83 25.37,-100.43 72.95,-100.43 34.88,0 61.31,16.91 86.68,49.69l0 119.45zm707.23 12.69c-65.54,30.66 -111,44.4 -180.77,44.4 -51.8,0 -78.23,-20.08 -87.75,-68.71l318.2 0c3.18,-29.6 4.23,-47.57 4.23,-70.83 0,-159.63 -94.08,-247.37 -243.14,-247.37 -165.97,0 -264.28,95.14 -264.28,270.63 0,172.31 101.48,263.23 264.28,263.23 87.74,0 160.68,-24.32 243.14,-82.46l-53.91 -108.89zm-269.57 -125.8c8.45,-58.14 37,-85.63 80.34,-85.63 48.63,0 75.06,29.6 77.17,85.63l-157.51 0zm1188.41 307.63l197.86 0 -26.43 -644.85 -220.06 0 -130.21 310.79c-7.4,19.03 -12.69,39.11 -15.85,50.75 -3.18,-11.64 -8.46,-31.72 -16.92,-50.75l-129.14 -310.79 -219.02 0 -26.42 644.85 195.75 0 7.39 -307.63 0 -26.43 131.27 334.06 114.17 0 133.38 -334.06 0 31.72 4.23 302.34zm530.5 -524.34c-170.2,0 -270.62,97.26 -270.62,269.57 0,168.09 100.42,264.29 270.62,264.29 170.2,0 270.63,-96.2 270.63,-264.29 0,-172.31 -100.43,-269.57 -270.63,-269.57zm0 383.74c-52.85,0 -83.51,-28.54 -83.51,-114.17 0,-89.86 31.71,-119.46 83.51,-119.46 51.8,0 83.51,29.6 83.51,119.46 0,85.63 -31.71,114.17 -83.51,114.17zm522.23 -374.23l-191.34 0 0 514.83 191.34 0 0 -296c25.37,-28.54 52.86,-47.57 85.63,-47.57 38.06,0 47.57,16.92 47.57,70.82l0 272.75 191.34 0 0 -327.71c0,-139.55 -41.23,-195.57 -149.05,-195.57 -58.15,0 -107.84,24.31 -175.49,77.17l0 -68.72zm750.57 370c-24.31,1.06 -43.35,1.06 -65.55,1.06 -47.57,0 -59.19,-22.2 -59.19,-60.26l0 -152.23 120.51 0 0 -157.51 -120.51 0 0 -109.94 -191.35 0 0 109.94 -69.77 0 0 157.51 69.77 0 0 160.69c0,146.94 52.86,204.03 176.54,204.03 57.09,0 122.63,-15.86 158.58,-38.06l-19.03 -115.23zm493.68 -37c-65.54,30.66 -111,44.4 -180.77,44.4 -51.8,0 -78.23,-20.08 -87.75,-68.71l318.21 0c3.17,-29.6 4.23,-47.57 4.23,-70.83 0,-159.63 -94.09,-247.37 -243.15,-247.37 -165.97,0 -264.28,95.14 -264.28,270.63 0,172.31 101.49,263.23 264.28,263.23 87.74,0 160.69,-24.32 243.15,-82.46l-53.92 -108.89zm-269.57 -125.8c8.46,-58.14 37,-85.63 80.34,-85.63 48.63,0 75.06,29.6 77.18,85.63l-157.52 0zm578.25 -207.2l-191.34 0 0 514.83 191.34 0 0 -238.91c20.09,-72.95 62.38,-88.8 124.75,-88.8 17.97,0 34.89,0 60.25,2.11l12.69 -194.51c-28.54,-3.17 -45.46,-3.17 -63.43,-3.17 -57.08,0 -96.2,32.76 -134.26,107.82l0 -99.37zm438.72 514.83l0 -514.83 -191.34 0 0 514.83 191.34 0zm148 -357.31c71.88,-14.81 126.86,-22.2 163.85,-22.2 51.8,0 64.49,22.2 64.49,66.6l-89.86 0c-144.83,0 -217.77,50.74 -217.77,159.62 0,125.8 61.32,162.81 168.09,162.81 56.03,0 100.42,-25.38 139.54,-69.77l0 60.25 189.22 0 0 -312.91c0,-149.06 -64.48,-211.43 -217.76,-211.43 -51.8,0 -103.6,6.34 -228.35,40.17l28.55 126.86zm228.34 134.25l0 64.49c-20.09,16.91 -44.4,30.65 -75.06,30.65 -32.77,0 -54.97,-19.02 -54.97,-49.68 0,-33.83 24.32,-45.46 66.6,-45.46l63.43 0z"/>
   <polygon class="fil3" points="8074.53,3000.02 8202.62,3087.8 8079.56,3267.35 7951.48,3179.57 "/>
   <polygon class="fil3" points="4339.83,1064.4 4467.92,1152.18 4344.86,1331.73 4216.78,1243.95 "/>
   <path class="fil1" d="M737.24 2732.86c205.97,188.81 478.11,303.7 776.5,303.7 298.13,0 570.03,-114.68 775.93,-303.19 18.66,-16.79 36.76,-34.2 54.3,-52.15 156.83,-16.06 225.12,11.61 226.3,196.37l0 750.76 0 162.25c0,89.24 -73,162.24 -162.24,162.24l-162.24 0 0 -905.03c-354.84,459.46 -1025.12,535.35 -1464.11,24.51l0 880.52 -162.24 0c-89.24,0 -162.24,-73 -162.24,-162.24l0 -162.25 0 -549.37 0.25 0 0 -198.83c0,-177.46 67.71,-222.32 226.01,-198.97 17.38,17.78 35.3,35.03 53.78,51.68z"/>
  </g>
 </g>
</svg>
